<svg xmlns="http://www.w3.org/2000/svg" width="319" height="55" fill="none"><path fill="#000" d="m71.95 2.185 22.159 28.38V2.185h13.243v50.079l-.191.19H95.318L72.077 23.438v28.826l-.191.19H58.834V2.184H71.95ZM142.983.06c22.83-1.456 37.531 24.075 24.325 42.89-11.272 16.06-35.208 15.402-45.619-1.197-10.895-17.372.921-40.395 21.294-41.693Zm.892 12.98c-9.718.703-15.96 10.868-12.054 19.86 4.464 10.278 18.516 11.626 24.866 2.362 6.71-9.789-1.023-23.074-12.812-22.222ZM14.136 2.185v19.853L32.792 2.185H51.32L30.21 24.009l20.983 28.445h-18.02L19.804 34.13 0 55V2.185h14.136Zm255.327-.126v12.09H244.63v7.38h17.701v11.455H244.63v7.508h24.833v11.962H230.75V2.06h38.713Zm-48.009 0v12.98h-14.646v37.225l-.191.19h-14.325V15.04h-14.773V2.059h43.935Zm75.006 0v50.27L319 30.183v22.08l-.191.19h-38.204l-.191-.19V2.25l.191-.19h15.855Z"/></svg>