<svg xmlns="http://www.w3.org/2000/svg" width="319" height="104" fill="none"><path fill="#52019B" d="M246.197 86.016a25.391 25.391 0 0 1-4.676-8.58c-.096-.26-.191-.519-.277-.788-.086-.27-.182-.616-.268-.962-.086-.346-.124-.394-.172-.606-.096-.356-.191-.73-.278-1.096l-.143-.654a37.805 37.805 0 0 1-.354-1.924c0-.23-.076-.462-.105-.702a23.9 23.9 0 0 1-.143-1.154c0-.25-.048-.5-.077-.75l-.086-.962 47.57-11.898a21.584 21.584 0 0 0-2.065-7.377 21.784 21.784 0 0 0-8.224-9.619 32.124 32.124 0 0 0-13.176-4.915l-.793-.125c-2.835-.35-5.7-.372-8.539-.067a34.576 34.576 0 0 0-20.036 9.442A34.941 34.941 0 0 0 224.08 62.99v.298c-.086.51-.153 1.02-.21 1.53 0 .307-.067.625-.096.961-.028.337 0 .539-.067.808 0 .471-.047.962-.067 1.414.005.09.005.18 0 .27v1.923c.14 4.05.995 8.043 2.525 11.792 5.402 13.264 18.234 22.007 31.793 22.007a34.563 34.563 0 0 0 16.545-3.835 34.784 34.784 0 0 0 12.761-11.266c-.573-1.49-.812-2.135-.812-2.135-3.443 6.704-26.553 15.033-40.255-.74Zm21.609-29.24-28.245 7.06c0-.865.057-1.73.124-2.577v-.318c0-.288.048-.567.077-.846.028-.279.095-.78.143-1.154a36.83 36.83 0 0 1 1.195-5.415 32.08 32.08 0 0 1 4.341-9.167 22.051 22.051 0 0 1 6.512-6.252 15.372 15.372 0 0 1 8.242-2.327c4.048 0 7.012 1.186 8.892 3.559.657.834 1.2 1.753 1.616 2.731 1.951 4.896 1.769 13.158-2.897 14.707ZM161.412 86.728c-3.385 6.733-26.534 15.014-40.207-.712a26.07 26.07 0 0 1-4.915-9.31 39.421 39.421 0 0 1-1.73-11.994 38.32 38.32 0 0 1 1.596-11.206 32.081 32.081 0 0 1 4.342-9.166A22.041 22.041 0 0 1 127 38.088a15.39 15.39 0 0 1 8.242-2.327c4.054 0 7.018 1.186 8.892 3.558a13.994 13.994 0 0 1 2.821 8.955 14.987 14.987 0 0 1-.717 4.944l14.4-3.51c-5.211-14.169-22.595-16.035-25.817-16.092-27.519-.452-42.617 26.527-33.724 48.341 5.412 13.264 18.234 22.007 31.793 22.007a34.53 34.53 0 0 0 16.547-3.831 34.76 34.76 0 0 0 12.759-11.27l-.784-2.135Z"/><path fill="#52019B" d="M224.023 86.728c-3.385 6.733-26.534 15.014-40.207-.712a25.93 25.93 0 0 1-4.915-9.31 39.395 39.395 0 0 1-1.74-11.994 38.015 38.015 0 0 1 1.596-11.206 32.066 32.066 0 0 1 4.332-9.166 22.235 22.235 0 0 1 6.512-6.252 15.372 15.372 0 0 1 8.242-2.327c4.041 0 7.005 1.186 8.892 3.558a13.996 13.996 0 0 1 2.869 8.955 14.729 14.729 0 0 1-.727 4.944l14.4-3.51c-5.211-14.169-22.585-16.035-25.769-16.092-27.528-.452-42.617 26.527-33.724 48.341 5.412 13.264 18.234 22.007 31.793 22.007a34.565 34.565 0 0 0 16.546-3.833 34.779 34.779 0 0 0 12.76-11.268l-.86-2.135Zm83.991 3.135V0l-20.338 5.146-.144.057v1.972c.717 0 6.875 1.828 6.875 6.166v76.243c0 9.619-6.55 11.033-10.977 11.321v1.597H319v-1.674c-4.389-.259-10.833-1.664-10.986-10.965ZM61.903.01 41.756 5.117l-.143.067v1.568c.717 0 6.693 2.203 5.01 6.165-7.554 17.534-32.405 76.244-33.715 78.87-4.34 8.82-10.393 8.753-12.908 9.051v1.596h31.554v-1.625s-11.981.144-11.981-6.367c0-3.963 6.186-19.487 7.879-23.719l41.115-10.416c.106.278 11.16 28.085 11.16 33.962 0 6.338-9.83 6.54-10.117 6.54v1.606h41.115v-1.587c-2.218-.096-9.561-.202-13.874-9.156C95.637 89.18 61.903.01 61.903.01Zm5.24 56.69-37.95 9.618c.2-.51 20.853-50.775 21.427-52.035.832 2.145 16.523 42.417 16.523 42.417Z"/></svg>